<svg xmlns="http://www.w3.org/2000/svg" viewBox="0 0 200 200">
  <defs>
    <clipPath id="fc">
      <circle cx="100" cy="100" r="93"/>
    </clipPath>
  </defs>
  <circle cx="100" cy="100" r="93" fill="#FAE2CC"/>
  <path d="M 139.3,15.7 A 93,93 0 1 0 139.3,184.3 L 122.8,148.9 A 54,54 0 1 1 122.8,51.1 Z" fill="#E33030" clip-path="url(#fc)"/>
  <circle cx="108" cy="88" r="47" fill="#F5C430" clip-path="url(#fc)"/>
  <rect x="7" y="112" width="186" height="81" fill="#FAE2CC" clip-path="url(#fc)"/>
  <path d="M 7,172 L 22,156 L 35,140 L 48,152 L 56,130 L 65,140 L 74,118 L 85,130 L 100,82 L 115,120 L 126,102 L 138,118 L 148,108 L 160,125 L 174,140 L 188,155 L 193,168 L 193,175 L 7,175 Z" fill="#1E306E" clip-path="url(#fc)"/>
  <circle cx="100" cy="100" r="93" stroke="#1E306E" stroke-width="7" fill="none"/>
</svg>
